<svg width="149" height="42" viewBox="0 0 149 42" fill="none" xmlns="http://www.w3.org/2000/svg">
<path d="M147.861 19.5927L148.667 20.1847C148.934 19.8212 148.925 19.3237 148.644 18.9705L147.861 19.5927ZM131.377 40.3422C131.05 40.7873 131.145 41.4132 131.59 41.7401C132.035 42.0671 132.661 41.9714 132.988 41.5263L131.377 40.3422ZM132.917 0.387229C132.543 -0.0186321 131.91 -0.0440071 131.504 0.330553C131.098 0.705112 131.073 1.33777 131.448 1.74363L132.917 0.387229ZM0 20.5927H147.861V18.5927H0V20.5927ZM147.861 19.5927C147.055 19.0006 147.055 19.0007 147.055 19.0008C147.055 19.0009 147.055 19.001 147.055 19.0012C147.055 19.0014 147.054 19.0017 147.054 19.002C147.054 19.0023 147.054 19.0026 147.053 19.003C147.052 19.0043 147.05 19.0073 147.048 19.0101C147.043 19.0168 147.037 19.0253 147.027 19.0382C147.009 19.0629 146.982 19.1003 146.946 19.1487C146.875 19.2461 146.769 19.3898 146.633 19.5758C146.359 19.9477 145.962 20.4884 145.466 21.1632C144.475 22.5129 143.089 24.3992 141.512 26.546C138.358 30.8396 134.438 36.175 131.377 40.3422L132.988 41.5263C136.05 37.3591 139.969 32.0237 143.124 27.7301C144.701 25.5833 146.087 23.697 147.078 22.3473C147.574 21.6724 147.971 21.1319 148.244 20.7599C148.381 20.574 148.487 20.4301 148.558 20.3329C148.594 20.2841 148.621 20.2473 148.639 20.2223C148.648 20.2102 148.656 20.2002 148.66 20.1942C148.663 20.1897 148.663 20.19 148.665 20.1871C148.665 20.1867 148.666 20.1864 148.666 20.1861C148.666 20.1858 148.666 20.1855 148.666 20.1853C148.667 20.1851 148.667 20.185 148.667 20.1849C148.667 20.1848 148.667 20.1847 147.861 19.5927ZM147.861 19.5927C148.644 18.9705 148.644 18.9705 148.644 18.9704C148.644 18.9703 148.644 18.9701 148.643 18.9699C148.643 18.9696 148.643 18.969 148.642 18.9683C148.641 18.9669 148.639 18.9649 148.637 18.9621C148.633 18.9567 148.626 18.9486 148.618 18.9379C148.601 18.9165 148.576 18.8847 148.542 18.843C148.476 18.7596 148.377 18.6365 148.25 18.4772C147.995 18.1588 147.623 17.6959 147.156 17.1173C146.222 15.9602 144.904 14.3397 143.371 12.4859C140.308 8.78152 136.374 4.13306 132.917 0.387229L131.448 1.74363C134.867 5.44891 138.773 10.0641 141.83 13.7605C143.357 15.6071 144.669 17.2214 145.6 18.3739C146.066 18.9501 146.435 19.4108 146.689 19.7272C146.815 19.8854 146.913 20.0075 146.979 20.09C147.012 20.1312 147.036 20.1625 147.053 20.1835C147.062 20.194 147.068 20.2019 147.072 20.2071C147.074 20.2097 147.076 20.2117 147.077 20.213C147.077 20.2136 147.078 20.2141 147.078 20.2144C147.078 20.2146 147.078 20.2147 147.078 20.2148C147.078 20.2148 147.078 20.2148 147.861 19.5927Z" fill="#080808"/>
</svg>
